<svg width="69" height="29" fill="none" xmlns="http://www.w3.org/2000/svg"><g clip-path="url(#a)"><path d="M29.38 14.5c0-1.78-.342-3.477-.939-5.051-.158 5.182-5.507 9.194-8.647 11.85h7.86A14.22 14.22 0 0 0 29.38 14.5ZM23.698 3.09A14.755 14.755 0 0 0 14.69.034C6.578.034 0 6.511 0 14.5c0 7.989 6.577 14.466 14.69 14.466 3.716 0 7.098-1.37 9.685-3.61H13.74l-.032-3.075c6.408-5.486 10.336-9.196 10.336-12.78 0-1.331-.515-3.012-2.833-3.012-1.836 0-3.607 1.048-3.285 5.423h-3.735c-.934-5.073 1.867-9.1 7.213-9.1.828 0 1.595.097 2.294.278Z" fill="#A3C626"/><path d="M43.006 10.033h3.474c.12-2.603-.771-6.727-6.503-6.727-4.218 0-7.277 2.486-7.277 7.662 0 .702.03 4.329.03 6.58 0 5.616 3.95 6.844 7.276 6.844 1.99 0 4.871-.439 6.207-1.872v-8.949H39.68v3.247h2.911v3.948c-2.198.73-6.207 1.024-6.207-3.948v-5.85c0-3.48 1.633-4.679 3.445-4.679 1.871 0 3.178.936 3.178 3.744Zm25.846 8.685c.148-8.013-9.177-5.352-9.088-9.826.03-1.579 1.069-2.603 2.762-2.603 1.812 0 2.88 1.053 2.85 3.802h3.416c.09-2.486-.505-6.726-6.147-6.726-3.505 0-6.385 1.696-6.445 5.469-.149 7.69 9.236 5.176 9.088 9.826-.06 1.9-1.456 2.749-3.03 2.749-1.84 0-3.326-1.053-3.029-4.211h-3.445c-.386 4.182 1.485 7.165 6.445 7.165 4.187 0 6.563-2.282 6.623-5.645ZM53.162 24.1h-3.504V3.628h3.504v20.471Zm0 0h-3.504V3.628h3.504v20.471Z" fill="#434242"/></g><defs><clipPath id="a"><path fill="#fff" d="M0 0h69v29H0z"/></clipPath></defs></svg>