<svg width="996" height="279" viewBox="0 0 996 279" fill="none" xmlns="http://www.w3.org/2000/svg">
<g filter="url(#filter0_d_1_21528)">
<path d="M414 257L320.237 287.711C287.764 298.347 257.071 267.375 268 235V235V235C277.364 209.295 250.881 185.15 226.149 196.844L157.286 229.402C112.947 250.366 62.9955 213.91 69.4405 165.29L83.0001 62.9999V62.9999C83.0001 39.6322 65.4844 19.9755 42.2713 17.2926L-16.5002 10.4999" stroke="white" stroke-width="4"/>
</g>
<g filter="url(#filter1_d_1_21528)">
<path d="M587.507 -14.9999L639.868 34.6378C660.788 54.4693 668.698 84.4234 660.297 111.998L647.201 154.979C627.341 220.162 708.31 268.17 755.972 219.471L764.456 210.802C783.844 190.992 815.326 189.769 836.192 208.013L848.199 218.511C871.623 238.992 908.4 227.967 916.694 197.977V197.977C918.857 190.158 918.721 181.882 916.304 174.138L915.166 170.494C903.433 132.907 933.702 95.474 972.913 99.0814L1015.51 103" stroke="white" stroke-width="4"/>
</g>
<defs>
<filter id="filter0_d_1_21528" x="-21.7298" y="8.51318" width="441.352" height="293.333" filterUnits="userSpaceOnUse" color-interpolation-filters="sRGB">
<feFlood flood-opacity="0" result="BackgroundImageFix"/>
<feColorMatrix in="SourceAlpha" type="matrix" values="0 0 0 0 0 0 0 0 0 0 0 0 0 0 0 0 0 0 127 0" result="hardAlpha"/>
<feOffset dy="5"/>
<feGaussianBlur stdDeviation="2.5"/>
<feComposite in2="hardAlpha" operator="out"/>
<feColorMatrix type="matrix" values="0 0 0 0 0.00221669 0 0 0 0 0.221667 0 0 0 0 0.115201 0 0 0 0.15 0"/>
<feBlend mode="normal" in2="BackgroundImageFix" result="effect1_dropShadow_1_21528"/>
<feBlend mode="normal" in="SourceGraphic" in2="effect1_dropShadow_1_21528" result="shape"/>
</filter>
<filter id="filter1_d_1_21528" x="581.131" y="-18.4514" width="439.559" height="267.847" filterUnits="userSpaceOnUse" color-interpolation-filters="sRGB">
<feFlood flood-opacity="0" result="BackgroundImageFix"/>
<feColorMatrix in="SourceAlpha" type="matrix" values="0 0 0 0 0 0 0 0 0 0 0 0 0 0 0 0 0 0 127 0" result="hardAlpha"/>
<feOffset dy="3"/>
<feGaussianBlur stdDeviation="2.5"/>
<feComposite in2="hardAlpha" operator="out"/>
<feColorMatrix type="matrix" values="0 0 0 0 0 0 0 0 0 0 0 0 0 0 0 0 0 0 0.15 0"/>
<feBlend mode="normal" in2="BackgroundImageFix" result="effect1_dropShadow_1_21528"/>
<feBlend mode="normal" in="SourceGraphic" in2="effect1_dropShadow_1_21528" result="shape"/>
</filter>
</defs>
</svg>
