<svg width="21" height="21" fill="none" xmlns="http://www.w3.org/2000/svg"><path d="M16.625 6.845a6.125 6.125 0 1 1-9.382-5.189h6.514a6.12 6.12 0 0 1 2.868 5.189Z" stroke="#828282" stroke-width="2"/><path d="M12 6.718a1.5 1.5 0 1 1-3 0 1.5 1.5 0 0 1 3 0ZM12.25 5.094a.875.875 0 1 0 0-1.75.875.875 0 0 0 0 1.75ZM8.75 5.094a.875.875 0 1 0 0-1.75.875.875 0 0 0 0 1.75Z" fill="#828282"/><path d="M13.2 13.294H7.8a3.025 3.025 0 1 0 0 6.05h5.4a3.025 3.025 0 1 0 0-6.05Z" stroke="#828282" stroke-width="2"/><path d="M8.266 17.548a1.365 1.365 0 1 0 0-2.73 1.365 1.365 0 0 0 0 2.73ZM13.061 17.55a1.365 1.365 0 1 0 0-2.73 1.365 1.365 0 0 0 0 2.73Z" fill="#828282"/></svg>