<svg width="21" height="21" fill="none" xmlns="http://www.w3.org/2000/svg"><g clip-path="url(#a)"><mask id="b" style="mask-type:luminance" maskUnits="userSpaceOnUse" x="0" y="0" width="21" height="21"><path d="M21 0H0v21h21V0Z" fill="#fff"/></mask><g mask="url(#b)"><path d="M10.5 20.125a9.625 9.625 0 1 0 0-19.25 9.625 9.625 0 0 0 0 19.25Z" stroke="#828282" stroke-width="2"/><path d="M5.819 12.957a2.455 2.455 0 1 0 0-4.911 2.455 2.455 0 0 0 0 4.91ZM15.184 12.957a2.455 2.455 0 1 0 0-4.911 2.455 2.455 0 0 0 0 4.91Z" fill="#828282"/><path fill-rule="evenodd" clip-rule="evenodd" d="M8.537 4.224A2.458 2.458 0 0 0 8.5 6.995l1.403-1.404-1.367-1.367Zm.542 3.381c.85.635 2.016.649 2.88.04l-1.46-1.46-1.42 1.42Zm3.474-.553a2.458 2.458 0 0 0-.038-2.884l-1.423 1.423 1.461 1.461Zm-.647-3.462a2.458 2.458 0 0 0-2.776.04l1.368 1.368 1.408-1.408ZM8.537 13.75A2.458 2.458 0 0 0 8.5 16.52l1.403-1.404-1.367-1.367Zm.542 3.381c.85.635 2.016.648 2.88.04l-1.46-1.46-1.42 1.42Zm3.474-.553a2.458 2.458 0 0 0-.038-2.884l-1.423 1.423 1.461 1.461Zm-.647-3.462a2.458 2.458 0 0 0-2.776.04l1.368 1.367 1.408-1.407Z" fill="#828282"/></g></g><defs><clipPath id="a"><path fill="#fff" d="M0 0h21v21H0z"/></clipPath></defs></svg>