<svg width="13" height="14" fill="none" xmlns="http://www.w3.org/2000/svg"><path d="M10.933 8.758c-.47-.5-1.056-.5-1.523 0-.356.38-.712.76-1.062 1.147-.096.107-.177.13-.294.058-.23-.135-.475-.245-.697-.393-1.032-.7-1.897-1.598-2.663-2.61-.38-.503-.718-1.041-.955-1.647-.048-.122-.039-.203.054-.303.356-.37.703-.75 1.053-1.131.488-.529.488-1.147-.003-1.68-.278-.302-.556-.599-.835-.901-.287-.31-.571-.622-.861-.929-.47-.493-1.057-.493-1.524.004-.359.38-.703.77-1.068 1.144-.338.344-.509.767-.545 1.26-.056.802.126 1.56.383 2.297.527 1.528 1.33 2.885 2.302 4.129 1.313 1.682 2.882 3.013 4.716 3.973.826.432 1.682.764 2.613.819.64.039 1.197-.135 1.642-.674.306-.367.65-.702.973-1.053.479-.523.482-1.154.006-1.67-.569-.615-1.14-1.228-1.712-1.84Z" fill="#fff"/></svg>