<svg width="15" height="9" fill="none" xmlns="http://www.w3.org/2000/svg"><path d="M15 7.5c0 .263-.092.507-.24.721l-4.737-4.239L14.708.703c.182.232.292.503.292.797v6ZM7.5 4.752 14.019.189A2.22 2.22 0 0 0 13.125 0H1.875C1.55 0 1.248.072.982.189L7.5 4.752Zm1.817-.276L7.808 5.533a.542.542 0 0 1-.308.092c-.11 0-.22-.03-.309-.092L5.682 4.476.886 8.769c.288.145.625.231.989.231h11.25c.364 0 .701-.086.989-.23L9.317 4.475ZM.292.703A1.283 1.283 0 0 0 0 1.5v6c0 .263.092.507.24.722l4.736-4.24L.292.703Z" fill="#fff"/></svg>