<svg width="21" height="21" fill="none" xmlns="http://www.w3.org/2000/svg"><g clip-path="url(#a)"><mask id="b" style="mask-type:luminance" maskUnits="userSpaceOnUse" x="0" y="0" width="21" height="21"><path d="M21 0H0v21h21V0Z" fill="#fff"/></mask><g mask="url(#b)" fill-rule="evenodd" clip-rule="evenodd" fill="#828282"><path d="M1.75 8.673c0 5.157 3.988 9.213 8.751 9.213s8.749-4.048 8.749-9.213v-.008a9.425 9.425 0 0 0-2.154-6.04H3.905a9.425 9.425 0 0 0-2.155 6.04v.008ZM3.122.875h14.757A11.175 11.175 0 0 1 21 8.673c0 6.06-4.698 10.963-10.498 10.963-5.8 0-10.5-4.912-10.5-10.963A11.175 11.175 0 0 1 3.12.875Z"/><path d="M8.705 5.403a1.274 1.274 0 1 0 .063.396v-.004c0-.134-.022-.267-.063-.392Zm.615.39V5.8a1.276 1.276 0 0 0 1.764 1.176 1.275 1.275 0 0 0 .784-1.176v-.004a1.274 1.274 0 0 0-2.548-.002Zm5.508.002a1.274 1.274 0 0 0-2.547-.001v.005a1.277 1.277 0 0 0 .375.903 1.274 1.274 0 0 0 2.172-.903v-.004.004-.004Zm-3.63 1.837a1.274 1.274 0 1 0 .67 1.122v-.005a1.274 1.274 0 0 0-.67-1.117Zm-3.436 6.584a1.273 1.273 0 1 0 .096.485v-.005c0-.166-.033-.33-.096-.48Zm.594.479a2.201 2.201 0 1 0 4.394.263 2.201 2.201 0 0 0-4.394-.263Zm4.965-.573a1.287 1.287 0 0 0-.133.704 1.276 1.276 0 0 0 1.022 1.124 1.275 1.275 0 0 0 1.52-1.25v-.004a1.274 1.274 0 0 0-2.409-.574ZM5.258 12.762a2.578 2.578 0 1 0 0-5.157 2.578 2.578 0 0 0 0 5.157Z"/><path d="M7.836 10.184a2.578 2.578 0 1 1-5.156 0 2.578 2.578 0 0 1 5.156 0ZM15.73 12.762a2.578 2.578 0 1 0 0-5.157 2.578 2.578 0 0 0 0 5.157Z"/><path d="M18.308 10.184a2.578 2.578 0 1 1-5.157 0 2.578 2.578 0 0 1 5.157 0Z"/></g></g><defs><clipPath id="a"><path fill="#fff" d="M0 0h21v21H0z"/></clipPath></defs></svg>