<svg width="48" height="49" fill="none" xmlns="http://www.w3.org/2000/svg"><path d="M24.49 20.046v9.488h13.18c-.579 3.051-2.316 5.635-4.92 7.372l7.947 6.17C45.328 38.8 48 32.519 48 25.057c0-1.737-.156-3.408-.445-5.011H24.49Z" fill="#4285F4"/><path d="m10.765 29.163-1.793 1.373-6.345 4.945C6.657 43.476 14.916 49 24.49 49c6.612 0 12.156-2.183 16.208-5.925l-7.948-6.17c-2.182 1.47-4.965 2.361-8.26 2.361-6.367 0-11.777-4.299-13.714-10.09l-.01-.014Z" fill="#34A853"/><path d="M2.627 13.52A24.206 24.206 0 0 0 0 24.5c0 3.965.957 7.684 2.627 10.98 0 .023 8.149-6.325 8.149-6.325-.49-1.47-.78-3.03-.78-4.655 0-1.626.29-3.185.78-4.655L2.627 13.52Z" fill="#FBBC05"/><path d="M24.49 9.755c3.607 0 6.812 1.248 9.373 3.653l7.013-7.016C36.623 2.428 31.102 0 24.49 0 14.917 0 6.657 5.501 2.627 13.52l8.148 6.325c1.937-5.79 7.347-10.09 13.715-10.09Z" fill="#EA4335"/></svg>