<svg width="41" height="41" fill="none" xmlns="http://www.w3.org/2000/svg"><g clip-path="url(#a)" fill="#fff"><path d="M20.918 16.773v7.939h11.258c-.494 2.553-1.978 4.715-4.203 6.169l6.79 5.162C38.718 32.465 41 27.209 41 20.966c0-1.454-.133-2.851-.38-4.193H20.918ZM9.195 24.402l-1.531 1.149-5.42 4.137C5.686 36.378 12.741 41 20.918 41c5.648 0 10.383-1.826 13.844-4.957l-6.789-5.162c-1.864 1.23-4.24 1.975-7.055 1.975-5.439 0-10.06-3.597-11.714-8.442l-.009-.012Z"/><path d="M2.244 11.312A19.92 19.92 0 0 0 0 20.5c0 3.317.818 6.43 2.244 9.188 0 .018 6.96-5.293 6.96-5.293A12.062 12.062 0 0 1 8.54 20.5c0-1.36.247-2.665.665-3.895l-6.96-5.293Z"/><path d="M20.918 8.163c3.081 0 5.82 1.043 8.006 3.056l5.99-5.87C31.283 2.03 26.567 0 20.919 0 12.741 0 5.686 4.603 2.244 11.312l6.96 5.293c1.654-4.845 6.276-8.442 11.714-8.442Z"/></g><defs><clipPath id="a"><path fill="#fff" d="M0 0h41v41H0z"/></clipPath></defs></svg>