<svg width="16" height="22" fill="none" xmlns="http://www.w3.org/2000/svg"><path d="M8.001 11.343c-2.127 0-3.859-1.655-3.859-3.69 0-2.036 1.732-3.69 3.859-3.69 2.128 0 3.857 1.654 3.857 3.69 0 2.035-1.73 3.69-3.857 3.69ZM8.001 0C3.589 0 0 3.434 0 7.653c0 2.005 1.305 5.013 3.879 8.939 1.9 2.9 3.827 5.256 3.846 5.28a.357.357 0 0 0 .276.128c.109 0 .21-.048.276-.13a71.745 71.745 0 0 0 3.845-5.314C14.696 12.613 16 9.617 16 7.652 16 3.434 12.411 0 8.001 0Z" fill="url(#a)"/><defs><linearGradient id="a" x1="8" y1="0" x2="8" y2="22" gradientUnits="userSpaceOnUse"><stop stop-color="#8DCA50"/><stop offset="1" stop-color="#608E31"/></linearGradient></defs></svg>