<svg width="128" height="30" fill="none" xmlns="http://www.w3.org/2000/svg"><g clip-path="url(#a)"><path d="M23.752 28.995c.116.145.13.306.044.48-.058.146-.174.22-.349.22h-4.35c-.377 0-.696-.146-.957-.438L6.351 16.225l-1.957 1.924v10.89a.67.67 0 0 1-.218.48.589.589 0 0 1-.435.175H.653a.746.746 0 0 1-.479-.175.755.755 0 0 1-.174-.48V1.136C0 .963.058.817.174.7A.664.664 0 0 1 .653.481H3.74c.174 0 .32.073.435.22a.54.54 0 0 1 .218.436v10.89L16.009.83c.26-.233.565-.35.913-.35h4.742c.174 0 .29.088.348.263.087.175.072.32-.044.437L9.483 13.207l14.269 15.788Z" fill="url(#b)"/><path d="M49.679 28.995c.116.145.13.306.043.48a.427.427 0 0 1-.391.22h-3.785c-.58 0-1.03-.234-1.348-.7l-7.526-10.321h-6.308v10.408a.54.54 0 0 1-.217.437.588.588 0 0 1-.435.175H26.58a.595.595 0 0 1-.609-.612V1.094A.595.595 0 0 1 26.58.48h13.007c2.465 0 4.567.89 6.307 2.668 1.74 1.75 2.61 3.863 2.61 6.341v.175c0 2.04-.623 3.863-1.87 5.467-1.247 1.603-2.842 2.667-4.785 3.192l7.83 10.67ZM30.364 4.898v9.359h9.223c1.247 0 2.32-.452 3.219-1.356.899-.903 1.348-1.982 1.348-3.236V9.49c0-1.283-.45-2.361-1.348-3.236-.9-.904-1.972-1.356-3.22-1.356h-9.222Z" fill="url(#c)"/><path d="m63.719 6.423-8.602 22.79c-.087.233-.261.35-.522.35h-3.741a.413.413 0 0 1-.348-.175.373.373 0 0 1 0-.35L61.294.699c.087-.233.261-.35.522-.35h3.915c.261 0 .435.117.522.35L77.13 29.038c.029.116 0 .233-.087.35-.058.116-.16.174-.305.174H73.04c-.262 0-.436-.116-.523-.35" fill="url(#d)"/><path d="M73.996.481h20.62c.174 0 .32.073.435.22a.595.595 0 0 1 .174.436v3.105a.755.755 0 0 1-.174.481.589.589 0 0 1-.435.175h-8.135v24.14a.67.67 0 0 1-.217.481.589.589 0 0 1-.435.175H82.74a.746.746 0 0 1-.478-.175.755.755 0 0 1-.174-.48V4.898h-8.091a.746.746 0 0 1-.479-.176.755.755 0 0 1-.174-.48V1.136c0-.174.058-.32.174-.437a.664.664 0 0 1 .478-.219Z" fill="url(#e)"/><path d="M101.142 29.694h-3.089a.746.746 0 0 1-.478-.175.755.755 0 0 1-.175-.48V1.136c0-.174.058-.32.174-.437a.664.664 0 0 1 .48-.219h3.088c.174 0 .319.073.435.22a.539.539 0 0 1 .217.436v27.901a.67.67 0 0 1-.217.481.589.589 0 0 1-.435.175Z" fill="url(#f)"/><path d="M121.849 14.17c4.321 1.37 6.365 3.847 6.133 7.434-.145 2.361-1.174 4.358-3.088 5.99-1.885 1.604-4.133 2.406-6.743 2.406h-2.262c-2.987 0-5.525-.918-7.613-2.755-2.088-1.866-3.132-4.009-3.132-6.429l4.306-.743c.116.525.233.977.349 1.356.145.379.391.86.739 1.443.377.554.812 1.02 1.305 1.4.493.349 1.175.655 2.045.918.87.262 1.87.393 3.001.393.87 0 1.668-.058 2.393-.175a10.986 10.986 0 0 0 2.132-.568c.696-.263 1.232-.656 1.609-1.181.406-.554.609-1.21.609-1.968 0-1.633-1.392-2.813-4.176-3.542-.145-.03-1.218-.306-3.219-.831a182.383 182.383 0 0 0-4.35-1.181c-2.059-.525-3.698-1.443-4.916-2.755-1.218-1.312-1.755-3.134-1.61-5.467.145-2.274 1.175-4.154 3.089-5.641C110.364.758 112.742 0 115.584 0c2.987 0 5.482.83 7.483 2.493 2.03 1.662 3.19 3.659 3.48 5.991l-4.524.7c-.929-3.178-3.22-4.767-6.874-4.767-1.537 0-2.784.32-3.741.962-.928.612-1.493 1.458-1.696 2.536-.116.554-.102 1.05.043 1.487.145.438.377.788.696 1.05.348.262.667.466.957.612.29.146.609.277.957.394 6.032 1.69 9.194 2.595 9.484 2.711Z" fill="url(#g)"/></g><defs><linearGradient id="b" x1="11.926" y1=".481" x2="11.926" y2="29.694" gradientUnits="userSpaceOnUse"><stop stop-color="#8DCA50"/><stop offset="1" stop-color="#608E31"/></linearGradient><linearGradient id="c" x1="37.874" y1=".481" x2="37.874" y2="29.694" gradientUnits="userSpaceOnUse"><stop stop-color="#8DCA50"/><stop offset="1" stop-color="#608E31"/></linearGradient><linearGradient id="d" x1="63.801" y1=".35" x2="63.801" y2="29.563" gradientUnits="userSpaceOnUse"><stop stop-color="#8DCA50"/><stop offset="1" stop-color="#608E31"/></linearGradient><linearGradient id="e" x1="84.285" y1=".481" x2="84.285" y2="29.694" gradientUnits="userSpaceOnUse"><stop stop-color="#8DCA50"/><stop offset="1" stop-color="#608E31"/></linearGradient><linearGradient id="f" x1="99.597" y1=".481" x2="99.597" y2="29.694" gradientUnits="userSpaceOnUse"><stop stop-color="#8DCA50"/><stop offset="1" stop-color="#608E31"/></linearGradient><linearGradient id="g" x1="116.572" y1="0" x2="116.572" y2="30" gradientUnits="userSpaceOnUse"><stop stop-color="#8DCA50"/><stop offset="1" stop-color="#608E31"/></linearGradient><clipPath id="a"><path fill="#fff" d="M0 0h128v30H0z"/></clipPath></defs></svg>