<svg width="9" height="9" viewBox="0 0 9 9" fill="none" xmlns="http://www.w3.org/2000/svg">
<path d="M4.50113 9C2.01875 9 0 6.98175 0 4.5C0 3.267 0.488372 2.11725 1.37734 1.26C1.52138 1.1205 1.75094 1.125 1.88822 1.269C2.02776 1.413 2.02326 1.6425 1.87922 1.77975C1.13428 2.49975 0.724681 3.465 0.724681 4.5C0.724681 6.58125 2.41935 8.2755 4.50113 8.2755C6.5829 8.2755 8.27757 6.58125 8.27757 4.5C8.27757 2.54025 6.77644 0.9225 4.86122 0.74025V2.14875C4.86122 2.349 4.69917 2.511 4.49887 2.511C4.29857 2.511 4.13653 2.349 4.13653 2.14875V0.36225C4.13653 0.162 4.29857 0 4.49887 0C6.98125 0 9 2.01825 9 4.5C9 6.98175 6.9835 9 4.50113 9Z" fill="white"/>
<path d="M2.69797 2.38302L4.93728 3.99177C5.2411 4.21002 5.31312 4.63302 5.09482 4.93677C4.87651 5.24053 4.45341 5.31253 4.14958 5.09427C4.08656 5.04927 4.03255 4.99528 3.99204 4.93677L2.38289 2.69802C2.31087 2.59677 2.33338 2.45502 2.43465 2.38302C2.51567 2.32452 2.62145 2.32902 2.69797 2.38302Z" fill="white"/>
</svg>
