<svg width="19" height="19" fill="none" xmlns="http://www.w3.org/2000/svg"><g filter="url(#a)" fill="#608E31"><path d="m1.923 12.638-1.9 5.71a.5.5 0 0 0 .47.65h.16l5.71-1.9-4.44-4.46ZM18.843 4.338l-4.19-4.19a.5.5 0 0 0-.71 0l-1.05 1.05 4.9 4.9 1.05-1.05a.501.501 0 0 0 0-.71ZM12.193 1.898l-9.8 9.8 4.9 4.9 9.8-9.8-4.9-4.9Zm-.33 3.19-6.47 6.47a.502.502 0 1 1-.71-.71l6.47-6.47a.502.502 0 1 1 .71.71Z"/></g><defs><filter id="a" x="0" y="0" width="18.991" height="21.998" filterUnits="userSpaceOnUse" color-interpolation-filters="sRGB"><feFlood flood-opacity="0" result="BackgroundImageFix"/><feBlend in="SourceGraphic" in2="BackgroundImageFix" result="shape"/><feColorMatrix in="SourceAlpha" values="0 0 0 0 0 0 0 0 0 0 0 0 0 0 0 0 0 0 127 0" result="hardAlpha"/><feOffset/><feGaussianBlur stdDeviation=".5"/><feComposite in2="hardAlpha" operator="arithmetic" k2="-1" k3="1"/><feColorMatrix values="0 0 0 0 0 0 0 0 0 0 0 0 0 0 0 0 0 0 0.15 0"/><feBlend in2="shape" result="effect1_innerShadow_1_3047"/><feColorMatrix in="SourceAlpha" values="0 0 0 0 0 0 0 0 0 0 0 0 0 0 0 0 0 0 127 0" result="hardAlpha"/><feOffset dy="2"/><feGaussianBlur stdDeviation="1"/><feComposite in2="hardAlpha" operator="arithmetic" k2="-1" k3="1"/><feColorMatrix values="0 0 0 0 0 0 0 0 0 0 0 0 0 0 0 0 0 0 0.13 0"/><feBlend in2="effect1_innerShadow_1_3047" result="effect2_innerShadow_1_3047"/><feColorMatrix in="SourceAlpha" values="0 0 0 0 0 0 0 0 0 0 0 0 0 0 0 0 0 0 127 0" result="hardAlpha"/><feOffset dy="4"/><feGaussianBlur stdDeviation="1"/><feComposite in2="hardAlpha" operator="arithmetic" k2="-1" k3="1"/><feColorMatrix values="0 0 0 0 0 0 0 0 0 0 0 0 0 0 0 0 0 0 0.08 0"/><feBlend in2="effect2_innerShadow_1_3047" result="effect3_innerShadow_1_3047"/><feColorMatrix in="SourceAlpha" values="0 0 0 0 0 0 0 0 0 0 0 0 0 0 0 0 0 0 127 0" result="hardAlpha"/><feOffset dy="7"/><feGaussianBlur stdDeviation="1.5"/><feComposite in2="hardAlpha" operator="arithmetic" k2="-1" k3="1"/><feColorMatrix values="0 0 0 0 0 0 0 0 0 0 0 0 0 0 0 0 0 0 0.02 0"/><feBlend in2="effect3_innerShadow_1_3047" result="effect4_innerShadow_1_3047"/></filter></defs></svg>