<svg width="119" height="91" fill="none" xmlns="http://www.w3.org/2000/svg"><path d="M26.065 104.71c.696-1.004 1.405-2.02 2.101-3.023 1.901-2.745 3.815-5.477 5.716-8.222l8.434-12.117c3.44-4.936 6.88-9.885 10.32-14.821 3.748-5.399 7.51-10.797 11.258-16.182L75.3 33.953c3.547-5.095 7.081-10.19 10.629-15.284l8.955-12.868c2.142-3.089 4.297-6.177 6.439-9.266 1.017-1.465 2.061-2.93 3.065-4.408.041-.066.094-.132.134-.185.937-1.346 1.098-3.55.67-5.081-.429-1.531-1.633-3.194-3.079-3.946-1.553-.805-3.44-1.214-5.154-.66-1.727.554-2.972 1.557-4.002 3.035-.697 1.004-1.406 2.02-2.102 3.023-1.9 2.745-3.815 5.477-5.716 8.222L76.705 8.652c-3.44 4.936-6.88 9.885-10.321 14.821-3.748 5.399-7.51 10.797-11.258 16.182L43.721 56.047c-3.547 5.095-7.081 10.19-10.629 15.284l-8.955 12.868c-2.142 3.089-4.297 6.177-6.439 9.266-1.017 1.465-2.061 2.93-3.065 4.408-.04.066-.094.132-.134.185-.937 1.346-1.098 3.55-.67 5.081.429 1.531 1.634 3.194 3.08 3.946 1.552.805 3.44 1.215 5.153.66 1.74-.554 2.985-1.557 4.003-3.035Z" fill="url(#a)"/><path d="M22.772-12.941c-4.445.026-9.103 1.293-12.744 3.867-1.098.779-2.195 1.597-3.173 2.52-.963.911-1.753 1.954-2.57 3.01C2.92-1.789 1.996.204 1.22 2.276.443 4.363.095 6.647.015 8.85c-.04.885 0 1.782.12 2.666.175 1.36.335 2.72.71 4.04.602 2.098 1.513 4.196 2.73 6.004 1.192 1.769 2.584 3.498 4.258 4.844 1.044.845 2.128 1.69 3.293 2.376 1.15.686 2.396 1.188 3.64 1.69 2.13.857 4.391 1.227 6.68 1.412 2.263.184 4.632-.093 6.827-.62a22.192 22.192 0 0 0 6.118-2.482c3.695-2.191 7-5.53 8.781-9.424.563-1.24 1.125-2.494 1.5-3.8.388-1.347.548-2.746.722-4.132.282-2.244.014-4.553-.428-6.758-.428-2.125-1.299-4.223-2.343-6.11-1.044-1.888-2.45-3.67-4.029-5.161-1.553-1.465-3.36-2.811-5.287-3.761-2.008-.99-4.15-1.822-6.372-2.152-1.366-.224-2.758-.409-4.163-.422-1.714-.013-3.52.739-4.74 1.927-1.164 1.148-2.034 3.022-1.954 4.672.161 3.59 2.945 6.573 6.694 6.6.75 0 1.486.052 2.222.144l-1.78-.237c1.378.198 2.703.554 3.989 1.082-.536-.224-1.071-.449-1.593-.66a16.891 16.891 0 0 1 3.64 2.099c-.455-.343-.896-.687-1.351-1.03a16.626 16.626 0 0 1 2.837 2.798c-.348-.448-.696-.884-1.044-1.333a16.544 16.544 0 0 1 2.129 3.59c-.228-.528-.455-1.056-.67-1.57a16.073 16.073 0 0 1 1.098 3.933l-.24-1.756c.2 1.465.2 2.93 0 4.382l.24-1.755c-.2 1.36-.562 2.666-1.098 3.933.228-.528.456-1.056.67-1.57a16.543 16.543 0 0 1-2.129 3.59c.348-.45.696-.885 1.044-1.334a16.625 16.625 0 0 1-2.837 2.798c.455-.343.896-.686 1.352-1.03a16.894 16.894 0 0 1-3.642 2.1c.536-.225 1.071-.45 1.593-.66-1.285.527-2.61.884-3.989 1.082.59-.08 1.192-.159 1.78-.238a16.7 16.7 0 0 1-4.444 0c.59.08 1.192.159 1.78.238a16.666 16.666 0 0 1-3.988-1.083c.535.225 1.07.45 1.593.66a16.894 16.894 0 0 1-3.641-2.098c.455.343.897.686 1.352 1.03a16.63 16.63 0 0 1-2.838-2.799c.348.449.696.884 1.044 1.333a16.54 16.54 0 0 1-2.128-3.59c.227.528.455 1.056.669 1.57a16.072 16.072 0 0 1-1.098-3.932c.08.58.16 1.175.241 1.755-.2-1.465-.2-2.93 0-4.382l-.24 1.756c.2-1.36.561-2.666 1.097-3.933-.228.528-.455 1.055-.67 1.57a16.54 16.54 0 0 1 2.129-3.59c-.348.449-.696.885-1.044 1.333a16.63 16.63 0 0 1 2.838-2.798c-.455.343-.897.687-1.352 1.03a16.891 16.891 0 0 1 3.64-2.099c-.535.225-1.07.449-1.592.66A16.668 16.668 0 0 1 22.33.165l-1.78.237a17.948 17.948 0 0 1 2.222-.145c1.727-.013 3.507-.726 4.738-1.927 1.165-1.148 2.035-3.022 1.955-4.672-.08-1.703-.643-3.471-1.955-4.672-1.312-1.175-2.931-1.94-4.738-1.927Z" fill="url(#b)"/><path d="M96.262 59.65c-4.444.026-9.103 1.294-12.744 3.867-1.097.779-2.195 1.597-3.172 2.521-.964.91-1.754 1.954-2.57 3.01-1.366 1.755-2.29 3.748-3.066 5.82-.776 2.085-1.124 4.369-1.205 6.573-.04.884 0 1.781.12 2.666.175 1.36.335 2.719.71 4.038.603 2.099 1.513 4.198 2.731 6.006 1.191 1.768 2.584 3.497 4.257 4.844 1.044.844 2.128 1.689 3.293 2.375 1.151.687 2.396 1.188 3.641 1.69 2.128.858 4.39 1.227 6.68 1.412 2.262.185 4.631-.093 6.827-.62a22.2 22.2 0 0 0 6.117-2.482c3.695-2.19 7.001-5.53 8.782-9.423.562-1.241 1.124-2.495 1.499-3.802.388-1.346.549-2.745.723-4.13.281-2.244.013-4.554-.429-6.758-.428-2.125-1.298-4.224-2.342-6.111-1.044-1.888-2.45-3.67-4.029-5.16-1.553-1.466-3.36-2.812-5.288-3.762-2.008-.99-4.15-1.822-6.372-2.152-1.365-.224-2.757-.409-4.163-.422-1.713-.013-3.52.74-4.739 1.927-1.164 1.148-2.034 3.023-1.954 4.672.16 3.59 2.945 6.573 6.693 6.6.75 0 1.486.052 2.222.145-.589-.08-1.191-.159-1.78-.238 1.379.198 2.704.554 3.989 1.082-.536-.224-1.071-.448-1.593-.66a16.916 16.916 0 0 1 3.641 2.099c-.455-.343-.897-.686-1.352-1.03a16.648 16.648 0 0 1 2.838 2.799c-.348-.45-.696-.885-1.044-1.334a16.58 16.58 0 0 1 2.128 3.59c-.227-.527-.455-1.055-.669-1.57a16.058 16.058 0 0 1 1.097 3.933c-.08-.58-.16-1.175-.241-1.755.201 1.465.201 2.93 0 4.382.081-.581.161-1.175.241-1.756-.2 1.36-.562 2.666-1.097 3.933.227-.528.455-1.056.669-1.57a16.578 16.578 0 0 1-2.128 3.59c.348-.45.696-.885 1.044-1.333a16.652 16.652 0 0 1-2.838 2.798c.455-.344.897-.687 1.352-1.03a16.916 16.916 0 0 1-3.641 2.099c.535-.225 1.071-.45 1.593-.66-1.285.528-2.61.884-3.99 1.082.59-.08 1.192-.158 1.781-.237a16.708 16.708 0 0 1-4.444 0l1.78.237a16.665 16.665 0 0 1-3.989-1.082c.536.224 1.071.448 1.593.66a16.893 16.893 0 0 1-3.64-2.099c.454.343.896.686 1.351 1.03a16.63 16.63 0 0 1-2.838-2.798c.348.448.696.884 1.044 1.333a16.543 16.543 0 0 1-2.128-3.59c.228.528.455 1.055.67 1.57a16.077 16.077 0 0 1-1.099-3.933l.241 1.755c-.2-1.465-.2-2.93 0-4.381l-.24 1.755c.2-1.36.562-2.666 1.097-3.933-.227.528-.455 1.056-.67 1.57a16.546 16.546 0 0 1 2.13-3.59c-.349.45-.697.885-1.045 1.334.83-1.043 1.78-1.98 2.838-2.799-.455.344-.897.687-1.352 1.03a16.893 16.893 0 0 1 3.641-2.099c-.535.225-1.07.45-1.593.66a16.665 16.665 0 0 1 3.99-1.082c-.59.08-1.192.159-1.781.238a17.944 17.944 0 0 1 2.222-.145c1.727-.014 3.507-.726 4.739-1.928 1.164-1.148 2.034-3.022 1.954-4.672-.08-1.702-.642-3.47-1.954-4.672-1.312-1.175-2.932-1.94-4.739-1.927Z" fill="url(#c)"/><defs><linearGradient id="a" x1="59.51" y1="-18" x2="59.51" y2="108" gradientUnits="userSpaceOnUse"><stop stop-color="#F2F2F2" stop-opacity=".5"/><stop offset="1" stop-color="#fff"/></linearGradient><linearGradient id="b" x1="22.755" y1="-12.941" x2="22.755" y2="31.938" gradientUnits="userSpaceOnUse"><stop stop-color="#F2F2F2" stop-opacity=".5"/><stop offset="1" stop-color="#fff"/></linearGradient><linearGradient id="c" x1="96.245" y1="59.65" x2="96.245" y2="104.529" gradientUnits="userSpaceOnUse"><stop stop-color="#F2F2F2" stop-opacity=".5"/><stop offset="1" stop-color="#fff"/></linearGradient></defs></svg>