<svg width="17" height="18" fill="none" xmlns="http://www.w3.org/2000/svg"><g filter="url(#a)"><path d="M14.297 11.26c-.614-.642-1.381-.642-1.992 0-.465.49-.93.978-1.389 1.475-.125.137-.23.166-.383.075-.302-.174-.623-.315-.912-.506-1.35-.899-2.481-2.055-3.483-3.356-.497-.646-.94-1.338-1.248-2.117-.063-.157-.051-.261.07-.39.466-.476.92-.965 1.378-1.454.637-.68.637-1.475-.004-2.159-.364-.39-.728-.77-1.092-1.16-.376-.398-.748-.8-1.127-1.193C3.5-.16 2.733-.16 2.123.479c-.47.489-.92.99-1.397 1.471-.442.443-.665.986-.712 1.62-.075 1.032.164 2.006.5 2.954.69 1.964 1.738 3.709 3.01 5.308 1.718 2.163 3.768 3.874 6.167 5.109 1.08.555 2.2.982 3.417 1.052.837.05 1.565-.174 2.148-.866.4-.472.85-.903 1.272-1.354.626-.672.63-1.484.008-2.147a618.258 618.258 0 0 0-2.239-2.366Z" fill="#608E31"/></g><defs><filter id="a" x="0" y="0" width="17" height="21" filterUnits="userSpaceOnUse" color-interpolation-filters="sRGB"><feFlood flood-opacity="0" result="BackgroundImageFix"/><feBlend in="SourceGraphic" in2="BackgroundImageFix" result="shape"/><feColorMatrix in="SourceAlpha" values="0 0 0 0 0 0 0 0 0 0 0 0 0 0 0 0 0 0 127 0" result="hardAlpha"/><feOffset/><feGaussianBlur stdDeviation=".5"/><feComposite in2="hardAlpha" operator="arithmetic" k2="-1" k3="1"/><feColorMatrix values="0 0 0 0 0 0 0 0 0 0 0 0 0 0 0 0 0 0 0.15 0"/><feBlend in2="shape" result="effect1_innerShadow_1_13817"/><feColorMatrix in="SourceAlpha" values="0 0 0 0 0 0 0 0 0 0 0 0 0 0 0 0 0 0 127 0" result="hardAlpha"/><feOffset dy="2"/><feGaussianBlur stdDeviation="1"/><feComposite in2="hardAlpha" operator="arithmetic" k2="-1" k3="1"/><feColorMatrix values="0 0 0 0 0 0 0 0 0 0 0 0 0 0 0 0 0 0 0.13 0"/><feBlend in2="effect1_innerShadow_1_13817" result="effect2_innerShadow_1_13817"/><feColorMatrix in="SourceAlpha" values="0 0 0 0 0 0 0 0 0 0 0 0 0 0 0 0 0 0 127 0" result="hardAlpha"/><feOffset dy="4"/><feGaussianBlur stdDeviation="1"/><feComposite in2="hardAlpha" operator="arithmetic" k2="-1" k3="1"/><feColorMatrix values="0 0 0 0 0 0 0 0 0 0 0 0 0 0 0 0 0 0 0.08 0"/><feBlend in2="effect2_innerShadow_1_13817" result="effect3_innerShadow_1_13817"/><feColorMatrix in="SourceAlpha" values="0 0 0 0 0 0 0 0 0 0 0 0 0 0 0 0 0 0 127 0" result="hardAlpha"/><feOffset dy="7"/><feGaussianBlur stdDeviation="1.5"/><feComposite in2="hardAlpha" operator="arithmetic" k2="-1" k3="1"/><feColorMatrix values="0 0 0 0 0 0 0 0 0 0 0 0 0 0 0 0 0 0 0.02 0"/><feBlend in2="effect3_innerShadow_1_13817" result="effect4_innerShadow_1_13817"/></filter></defs></svg>