<svg width="37" height="41" viewBox="0 0 37 41" fill="none" xmlns="http://www.w3.org/2000/svg">
<path d="M26.208 11.0347H10.792C10.792 11.0347 0 20.4964 0 31.538C0 37.8444 4.64082 40.9998 7.70798 40.9998H29.292C32.3718 40.9998 37 37.8444 37 31.538C37 20.4964 26.208 11.0347 26.208 11.0347ZM20.0399 32.9538V35.479H16.9601V32.9625C14.6903 32.5308 13.2643 31.0977 13.1631 29.0172H15.8336C15.9644 30.1093 17.0403 30.8129 18.597 30.8129C20.0315 30.8129 21.0482 30.1006 21.0482 29.0863C21.0482 28.223 20.3901 27.7309 18.77 27.3597L17.0529 26.9841C14.6481 26.4705 13.4668 25.1885 13.4668 23.1295C13.4668 21.0705 14.8084 19.5856 16.9432 19.0979V16.5555H20.023V19.1022C22.1072 19.577 23.4952 21.0317 23.5627 22.987H20.9849C20.8542 21.9209 19.8838 21.2086 18.5506 21.2086C17.2174 21.2086 16.2555 21.8648 16.2555 22.8921C16.2555 23.7252 16.8841 24.187 18.4325 24.541L20.023 24.8863C22.6767 25.4561 23.8201 26.6129 23.8201 28.7237C23.8201 30.9812 22.4025 32.492 20.0399 32.9538Z" fill="white"/>
<path d="M26.2078 1.56882H21.9467C21.5115 1.07498 20.9799 0.680147 20.3861 0.409897C19.7923 0.139646 19.1497 0 18.4998 0C17.8499 0 17.2073 0.139646 16.6135 0.409897C16.0198 0.680147 15.4881 1.07498 15.0529 1.56882H10.7918C10.5408 1.56993 10.2938 1.63364 10.0723 1.75444C9.85074 1.87524 9.66133 2.04948 9.52046 2.26207C9.37958 2.47465 9.29149 2.71918 9.26381 2.97445C9.23613 3.22973 9.2697 3.48806 9.36161 3.72706L10.7918 7.87522H26.2078L27.638 3.72706C27.7299 3.48806 27.7635 3.22973 27.7358 2.97445C27.7081 2.71918 27.62 2.47465 27.4792 2.26207C27.3383 2.04948 27.1489 1.87524 26.9273 1.75444C26.7058 1.63364 26.4588 1.56993 26.2078 1.56882Z" fill="white"/>
<rect x="11" y="16" width="15" height="21" fill="white"/>
<path d="M20.76 35H17.136V25.592H12.48V22.568H25.416V25.592H20.76V35ZM12.48 17.864H25.416V20.888H12.48V17.864Z" fill="#BBDB9C"/>
</svg>
