<svg width="37" height="37" viewBox="0 0 37 37" fill="none" xmlns="http://www.w3.org/2000/svg">
<path d="M37 22.561V30.6829H30.6829V24.8171C30.6829 21.3427 29.1939 18.1841 26.8476 15.9732C27.75 15.5671 28.7427 15.3415 29.7805 15.3415C33.7512 15.3415 37 18.5902 37 22.561ZM29.7805 13.5366C32.7585 13.5366 35.1951 11.1 35.1951 8.12195C35.1951 5.1439 32.7585 2.70732 29.7805 2.70732C28.4268 2.70732 27.2085 3.20366 26.261 4.01585C26.4866 4.7378 26.622 5.50488 26.622 6.31707C26.622 8.03171 26.0805 9.61098 25.178 10.9195C26.1256 12.4988 27.8402 13.5366 29.7805 13.5366ZM10.1524 15.9732C9.25 15.5671 8.25732 15.3415 7.21951 15.3415C3.24878 15.3415 0 18.5902 0 22.561V30.6829H6.31707V24.8171C6.31707 21.3427 7.8061 18.1841 10.1524 15.9732ZM7.21951 13.5366C9.15976 13.5366 10.8744 12.4988 11.822 10.9195C10.9195 9.61098 10.378 8.03171 10.378 6.31707C10.378 5.50488 10.5134 4.7378 10.739 4.01585C9.79146 3.20366 8.57317 2.70732 7.21951 2.70732C4.24146 2.70732 1.80488 5.1439 1.80488 8.12195C1.80488 11.1 4.24146 13.5366 7.21951 13.5366ZM18.5 12.6341C21.9744 12.6341 24.8171 9.79146 24.8171 6.31707C24.8171 2.84268 21.9744 0 18.5 0C15.0256 0 12.1829 2.84268 12.1829 6.31707C12.1829 9.79146 15.0256 12.6341 18.5 12.6341ZM18.5 14.439C12.7695 14.439 8.12195 19.0866 8.12195 24.8171V37H28.878V24.8171C28.878 19.0866 24.2305 14.439 18.5 14.439Z" fill="white"/>
</svg>
