<svg width="22" height="42" viewBox="0 0 22 42" fill="none" xmlns="http://www.w3.org/2000/svg">
<path fill-rule="evenodd" clip-rule="evenodd" d="M22 40.7535V5.32144C22 4.97544 21.8604 4.66059 21.6355 4.43221C21.4106 4.20383 21.1007 4.06201 20.76 4.06201H14.2779C14.2732 4.06208 14.2684 4.06211 14.2636 4.06211H7.73647C7.73176 4.06211 7.72702 4.06208 7.72231 4.06201H1.22749C0.890286 4.06201 0.583421 4.2024 0.36081 4.42849C0.138198 4.65459 0 4.96628 0 5.30879V40.7535C0 41.096 0.138198 41.4077 0.36081 41.6338C0.583422 41.8598 0.890287 42.0002 1.22749 42.0002H20.7725C21.1097 42.0002 21.4166 41.8598 21.6392 41.6338C21.8618 41.4077 22 41.096 22 40.7535ZM10.9933 10.7917C7.85932 12.6347 5.0894 15.1192 5.23326 19.1174C5.27213 20.1987 5.6058 21.2629 6.09324 22.2073C6.5927 23.175 7.29134 23.6649 7.94505 24.0399C7.98663 24.0515 8.02815 24.062 8.06958 24.0714C8.0597 23.3135 8.3447 21.9646 8.47217 21.472C8.84959 20.0144 9.27984 18.9385 9.91858 17.682C10.3371 16.8587 11.3951 14.9255 11.9756 14.3011C11.6844 14.8918 11.3567 15.4753 11.094 16.0503C10.8977 16.4803 10.5052 17.389 10.3611 17.8318C10.2261 18.2466 10.0678 18.6399 9.95787 19.0447C9.59118 20.3952 9.0412 22.6249 9.02345 24.1339C9.94214 24.065 11.321 23.6007 12.0888 23.1751C12.768 22.7986 13.437 22.2776 13.9205 21.7851C14.8923 20.795 15.7725 19.5181 15.9642 18.0542C16.2794 15.6484 15.0506 12.5498 16.3147 9.63403L16.7721 8.61564C15.5653 8.40064 12.1019 10.1397 10.9933 10.7917ZM2.91732 28.0361H19.073C19.2564 28.0361 19.4051 28.1871 19.4051 28.3735V32.0454C19.4051 32.2317 19.2564 32.3827 19.073 32.3827H2.91732C2.73388 32.3827 2.58515 32.2317 2.58515 32.0454V28.3735C2.58515 28.1871 2.73388 28.0361 2.91732 28.0361ZM2.71485 35.0182H19.0729C19.2564 35.0182 19.4051 35.1692 19.4051 35.3555V39.0275C19.4051 39.2138 19.2564 39.3648 19.0729 39.3648H2.71485C2.5314 39.3648 2.38268 39.2138 2.38268 39.0275V35.3555C2.38268 35.1692 2.5314 35.0182 2.71485 35.0182Z" fill="white"/>
<path fill-rule="evenodd" clip-rule="evenodd" d="M15.4188 2.61929V0.46769C15.4188 0.211282 15.2108 0 14.9583 0H7.04184C6.91495 0 6.79964 0.0524634 6.71608 0.136936C6.63274 0.220015 6.58125 0.341113 6.58125 0.467689V2.61929C6.58125 2.74849 6.63264 2.8653 6.71533 2.94925C6.79817 3.03335 6.90547 3.08406 7.03089 3.08681L7.04184 3.08695H14.9583L14.9688 3.08681C15.2165 3.08107 15.4188 2.87211 15.4188 2.61929Z" fill="white"/>
</svg>
