<svg width="44" height="34" viewBox="0 0 44 34" fill="none" xmlns="http://www.w3.org/2000/svg">
<path d="M44 12.2027C44 22.7757 27.9 31.5374 23 34V24.4141H26C28.9174 24.4141 31.7153 23.2347 33.7782 21.1355C35.8411 19.0362 37 16.1891 37 13.2203V12.2027C37 11.9328 36.8946 11.6739 36.7071 11.4831C36.5196 11.2923 36.2652 11.1851 36 11.1851H32C30.0602 11.1859 28.1551 11.7088 26.4779 12.7007C24.8007 13.6926 23.4111 15.1181 22.45 16.8328C21.724 14.5962 20.3232 12.6496 18.447 11.2702C16.5707 9.89074 14.3147 9.14874 12 9.14982H8C7.73478 9.14982 7.48043 9.25703 7.29289 9.44787C7.10536 9.63871 7 9.89755 7 10.1674V11.1851C7 14.1538 8.15893 17.001 10.2218 19.1002C12.2847 21.1995 15.0826 22.3788 18 22.3788H21V34C16.1 31.5374 0 22.7757 0 12.2027C0.00176281 9.69232 0.763767 7.24352 2.18226 5.18969C3.60075 3.13587 5.6068 1.57681 7.92727 0.724817C10.2477 -0.12718 12.7699 -0.23072 15.1502 0.428294C17.5306 1.08731 19.6535 2.47685 21.23 4.40773C21.3238 4.52296 21.4415 4.61572 21.5746 4.67939C21.7077 4.74305 21.8529 4.77606 22 4.77606C22.1471 4.77606 22.2923 4.74305 22.4254 4.67939C22.5585 4.61572 22.6762 4.52296 22.77 4.40773C24.3465 2.47685 26.4694 1.08731 28.8498 0.428294C31.2301 -0.23072 33.7523 -0.12718 36.0727 0.724817C38.3932 1.57681 40.3993 3.13587 41.8177 5.18969C43.2362 7.24352 43.9982 9.69232 44 12.2027Z" fill="white"/>
<path d="M12.39 15.0418L19.09 20.3436H18C15.6131 20.3436 13.3239 19.3787 11.636 17.6611C9.94821 15.9436 9 13.6141 9 11.1851H12C14.196 11.1857 16.316 12.0033 17.9608 13.484C19.6056 14.9647 20.6616 17.0063 20.93 19.2242L13.61 13.434C13.5073 13.3425 13.3873 13.2733 13.2573 13.2308C13.1273 13.1883 12.9902 13.1733 12.8543 13.1867C12.7185 13.2002 12.5867 13.2418 12.4673 13.3091C12.3478 13.3763 12.2431 13.4677 12.1597 13.5776C12.0763 13.6876 12.0158 13.8138 11.9822 13.9484C11.9485 14.083 11.9422 14.2232 11.9638 14.3604C11.9854 14.4976 12.0343 14.6288 12.1076 14.746C12.1809 14.8632 12.277 14.9639 12.39 15.0418Z" fill="white"/>
<path d="M34.9999 13.2202C34.9999 15.6492 34.0517 17.9787 32.3639 19.6963C30.6761 21.4138 28.3869 22.3788 25.9999 22.3788H24.9099L31.6099 17.077C31.7229 16.999 31.819 16.8983 31.8923 16.7811C31.9656 16.664 32.0146 16.5327 32.0362 16.3956C32.0577 16.2584 32.0515 16.1182 32.0178 15.9835C31.9841 15.8489 31.9237 15.7228 31.8402 15.6128C31.7568 15.5028 31.6521 15.4114 31.5327 15.3442C31.4132 15.277 31.2815 15.2354 31.1456 15.2219C31.0097 15.2084 30.8726 15.2234 30.7426 15.266C30.6127 15.3085 30.4926 15.3776 30.3899 15.4691L23.0699 21.2594C23.3383 19.0414 24.3944 16.9999 26.0391 15.5192C27.6839 14.0385 29.8039 13.2208 31.9999 13.2202H34.9999Z" fill="white"/>
</svg>
