<svg width="39" height="39" fill="none" xmlns="http://www.w3.org/2000/svg"><path fill-rule="evenodd" clip-rule="evenodd" d="M0 38.41v-2.99a.59.59 0 0 1 .588-.59h22.378c.325 0 .588.264.588.59v2.99c0 .326-.263.59-.588.59H.588A.59.59 0 0 1 0 38.41Zm1.966-4.692V5.554C1.966 2.488 4.45 0 7.509 0h7.993c3.06 0 5.544 2.488 5.544 5.554v20.454h5.797a4.858 4.858 0 0 0 4.852-4.86V12.73h-.06a4.669 4.669 0 0 1-4.663-4.672v-3.96h1.984V1.21c0-.668.542-1.21 1.209-1.21h.27a1.21 1.21 0 0 1 1.209 1.21v2.887h2.674V1.21c0-.668.541-1.21 1.208-1.21h.27a1.21 1.21 0 0 1 1.208 1.21v2.887H39v3.961a4.67 4.67 0 0 1-4.378 4.664v8.426c0 4.302-3.485 7.793-7.779 7.793h-5.797v4.777H1.966Zm6.276-5.045 8.358-9.179h-4.983l4.232-6.057h-5.436L7.92 20.782l3.537.161-3.215 7.73Zm7.803-22.661V5.6a2.34 2.34 0 0 0-2.337-2.341H9.846A2.34 2.34 0 0 0 7.51 5.6v.412a2.34 2.34 0 0 0 2.337 2.342h3.862a2.34 2.34 0 0 0 2.337-2.342Z" fill="#fff"/></svg>