<svg width="35" height="38" fill="none" xmlns="http://www.w3.org/2000/svg"><path fill-rule="evenodd" clip-rule="evenodd" d="M11.974 1.81h11.052a.913.913 0 0 0 .921-.905c0-.5-.412-.905-.92-.905H11.973a.913.913 0 0 0-.921.905c0 .5.412.904.92.904ZM28.98 5.693a.933.933 0 0 1 1.303 0l2.605 2.559c.36.353.36.926 0 1.279a.893.893 0 0 0 0 1.28.933.933 0 0 0 1.303-.001 2.68 2.68 0 0 0 0-3.838l-2.605-2.558a2.79 2.79 0 0 0-1.955-.795c-.732 0-1.435.286-1.954.795a.894.894 0 0 0 0 1.28.932.932 0 0 0 1.303 0ZM2.112 9.531a.893.893 0 0 1 0-1.28l2.606-2.558a.933.933 0 0 1 1.302 0 .933.933 0 0 0 1.302.001.894.894 0 0 0 .001-1.28 2.793 2.793 0 0 0-1.954-.795c-.732 0-1.435.286-1.954.795L.81 6.972a2.679 2.679 0 0 0 0 3.838.933.933 0 0 0 1.302 0 .895.895 0 0 0 0-1.28Z" fill="#fff"/><path fill-rule="evenodd" clip-rule="evenodd" d="M17.5 3.622c9.658 0 17.5 7.703 17.5 17.189S27.158 38 17.5 38C7.842 38 0 30.297 0 20.81 0 11.326 7.842 3.623 17.5 3.623Zm-.921 6.33V20.81c0 .24.097.47.27.64.173.17.407.265.65.265l11.053-.004a.913.913 0 0 0 .922-.905c0-.5-.413-.904-.922-.904l-10.131.003V9.951c0-.5-.413-.904-.921-.904a.913.913 0 0 0-.921.904Z" fill="#fff"/></svg>