<svg width="185" height="196" fill="none" xmlns="http://www.w3.org/2000/svg"><path fill-rule="evenodd" clip-rule="evenodd" d="M163.862 0c20.67 0 37.454 16.784 37.454 37.455 0 20.67-16.784 37.454-37.454 37.454s-37.454-16.784-37.454-37.455C126.408 16.785 143.192 0 163.862 0Zm1.554 20.81 9.364 14.046a4.684 4.684 0 0 1 .234 4.808 4.685 4.685 0 0 1-4.13 2.472h-5.295l4.509 6.766a4.686 4.686 0 0 1-1.297 6.493 4.686 4.686 0 0 1-6.494-1.297l-9.363-14.045a4.68 4.68 0 0 1 3.895-7.28h5.295l-4.508-6.766a4.686 4.686 0 0 1 1.296-6.493 4.686 4.686 0 0 1 6.494 1.297ZM121.724 191.955c0-7.758 6.292-14.046 14.047-14.046h56.181c7.756 0 14.048 6.288 14.048 14.046-.004 4.681-.004 9.363-.004 9.363a4.68 4.68 0 0 1-4.68 4.682h-74.908a4.686 4.686 0 0 1-4.684-4.682v-9.363Z" fill="#608E31" fill-opacity=".8"/><path fill-rule="evenodd" clip-rule="evenodd" d="M196.634 169.014a23.388 23.388 0 0 0-4.682-.469h-56.181c-1.601 0-3.169.16-4.682.469V70.878c8.446 8.282 20.02 13.395 32.773 13.395 12.753 0 24.326-5.113 32.772-13.395v98.136ZM106.711 112.86c5.956 1.625 10.333 7.079 10.333 13.549v46.818a14.03 14.03 0 0 1-4.115 9.931 14.032 14.032 0 0 1-9.93 4.115v4.682c0 7.757-6.288 14.045-14.045 14.045H74.907c-7.758 0-14.045-6.288-14.045-14.045v-4.682H4.682A4.684 4.684 0 0 1 0 182.591v-65.545a4.683 4.683 0 0 1 4.682-4.682H96.87L88.2 80.579a14.04 14.04 0 0 0-13.55-10.352H4.683A4.683 4.683 0 0 1 0 65.546a4.683 4.683 0 0 1 4.682-4.682H74.65a23.412 23.412 0 0 1 22.585 17.248l9.475 34.748Zm.97 22.913v28.091h-4.682c-3.727 0-7.3-1.48-9.93-4.116a14.027 14.027 0 0 1-4.115-9.93c0-3.726 1.479-7.299 4.115-9.93a14.027 14.027 0 0 1 9.93-4.115h4.682Z" fill="#608E31" fill-opacity=".8"/></svg>