<svg width="18" height="20" fill="none" xmlns="http://www.w3.org/2000/svg"><path fill-rule="evenodd" clip-rule="evenodd" d="M6.158.952h5.684a.475.475 0 0 0 0-.952H6.158a.475.475 0 0 0 0 .952Z" fill="url(#a)"/><path fill-rule="evenodd" clip-rule="evenodd" d="M14.904 2.996a.474.474 0 0 1 .67 0l1.34 1.347a.478.478 0 0 1 0 .673.478.478 0 0 0 0 .674.472.472 0 0 0 .67 0 1.433 1.433 0 0 0 0-2.02l-1.34-1.347a1.418 1.418 0 0 0-2.01 0 .478.478 0 0 0 0 .673.471.471 0 0 0 .67 0ZM1.086 5.016a.478.478 0 0 1 0-.673l1.34-1.347a.474.474 0 0 1 .67 0 .472.472 0 0 0 .67 0 .478.478 0 0 0 0-.673 1.42 1.42 0 0 0-2.01 0L.416 3.67a1.433 1.433 0 0 0 0 2.02.472.472 0 0 0 .67 0 .479.479 0 0 0 0-.674Z" fill="url(#b)"/><path fill-rule="evenodd" clip-rule="evenodd" d="M9 1.906c4.967 0 9 4.054 9 9.047S13.967 20 9 20s-9-4.054-9-9.047 4.033-9.047 9-9.047Zm-.474 3.332v5.715A.476.476 0 0 0 9 11.43l5.684-.002a.475.475 0 0 0 0-.952l-5.21.002v-5.24A.475.475 0 0 0 9 4.762a.475.475 0 0 0-.474.477Z" fill="url(#c)"/><defs><linearGradient id="a" x1="9" y1="0" x2="9" y2=".952" gradientUnits="userSpaceOnUse"><stop stop-color="#8DCA50"/><stop offset="1" stop-color="#608E31"/></linearGradient><linearGradient id="b" x1="9" y1="1.905" x2="9" y2="5.829" gradientUnits="userSpaceOnUse"><stop stop-color="#8DCA50"/><stop offset="1" stop-color="#608E31"/></linearGradient><linearGradient id="c" x1="9" y1="1.906" x2="9" y2="20" gradientUnits="userSpaceOnUse"><stop stop-color="#8DCA50"/><stop offset="1" stop-color="#608E31"/></linearGradient></defs></svg>