<svg width="21" height="19" fill="none" xmlns="http://www.w3.org/2000/svg"><g clip-path="url(#a)"><path d="M20.125 8.636c0 5.247-4.31 9.5-9.625 9.5-5.316 0-9.625-4.253-9.625-9.5 0-3.212 1.614-6.052 4.09-7.772h11.07c2.476 1.72 4.09 4.56 4.09 7.772Z" stroke="#828282" stroke-width="2"/><path d="M5.25 10.364c.966 0 1.75-.774 1.75-1.728 0-.953-.784-1.727-1.75-1.727S3.5 7.683 3.5 8.636c0 .954.784 1.728 1.75 1.728ZM15.75 10.364c.966 0 1.75-.774 1.75-1.728 0-.953-.784-1.727-1.75-1.727S14 7.683 14 8.636c0 .954.784 1.728 1.75 1.728ZM10.5 10.364c.966 0 1.75-.774 1.75-1.728 0-.953-.784-1.727-1.75-1.727s-1.75.774-1.75 1.727c0 .954.784 1.728 1.75 1.728ZM7.91 14.682c.966 0 1.75-.773 1.75-1.727 0-.954-.784-1.728-1.75-1.728-.967 0-1.75.774-1.75 1.728s.783 1.727 1.75 1.727ZM7.91 6.046c.724 0 1.312-.58 1.312-1.296 0-.715-.588-1.295-1.313-1.295s-1.312.58-1.312 1.295c0 .716.587 1.296 1.312 1.296ZM13.125 14.682c.967 0 1.75-.773 1.75-1.727 0-.954-.783-1.728-1.75-1.728-.966 0-1.75.774-1.75 1.728s.784 1.727 1.75 1.727ZM13.125 6.046c.725 0 1.313-.58 1.313-1.296 0-.715-.588-1.295-1.313-1.295s-1.313.58-1.313 1.295c0 .716.588 1.296 1.313 1.296Z" fill="#828282"/></g><defs><clipPath id="a"><path fill="#fff" d="M0 0h21v19H0z"/></clipPath></defs></svg>