<svg width="21" height="21" fill="none" xmlns="http://www.w3.org/2000/svg"><path d="M12.337 12.703a1.865 1.865 0 1 1-3.73-.003 1.865 1.865 0 0 1 3.73.003ZM9.268 7.03a1.865 1.865 0 1 1-3.73-.002 1.865 1.865 0 0 1 3.73.002ZM15.562 7.03a1.866 1.866 0 1 1-3.732-.002 1.866 1.866 0 0 1 3.732.002ZM16.028 12.27a1.283 1.283 0 1 1-2.565 0 1.283 1.283 0 0 1 2.565 0ZM7.636 12.27a1.283 1.283 0 1 1-2.565 0 1.283 1.283 0 0 1 2.565 0Z" fill="#828282"/><path fill-rule="evenodd" clip-rule="evenodd" d="M9.572 17.126v2.088c.602.003 1.255.003 1.856 0v-2.088l1.253-.37A7.664 7.664 0 0 0 18.16 9.41a7.66 7.66 0 1 0-15.32 0c0 3.47 2.31 6.406 5.48 7.345l1.252.371Zm3.606 3.816c-1.172.031-4.184.032-5.356 0v-2.509A9.41 9.41 0 1 1 19.91 9.41c0 4.266-2.839 7.87-6.731 9.023v2.509Z" fill="#828282"/></svg>