<svg width="21" height="18" fill="none" xmlns="http://www.w3.org/2000/svg"><path d="M16 14.553c-1.54-.014-3.012-.932-3.012-2.393v-.85c.607-.696 1.307-1.771 1.577-2.64.03-.148.367-.221.464-.321a1.59 1.59 0 0 0 .236-1.97c-.054-.092-.342-.172-.337-.286 0-.776.005-1.554 0-2.33-.022-.936-.3-1.909-.982-2.602-.55-.56-1.307-.893-2.088-1.037a7.21 7.21 0 0 0-2.993.069c-.846.205-1.64.68-2.133 1.389-.434.614-.625 1.359-.658 2.095-.012.79-.002 1.581-.005 2.372.019.158-.31.266-.375.396a1.598 1.598 0 0 0 .39 2.007c.151.1.37.284.426.443.26.781.956 1.756 1.503 2.387v.878c0 1.461-1.434 2.371-3.015 2.393-1.424.021-3.422.86-4.998 3.447h21c-1.583-2.589-3.61-3.434-5-3.447Z" fill="url(#a)"/><defs><linearGradient id="a" x1="10.5" y1="-10.5" x2="10.5" y2="28.5" gradientUnits="userSpaceOnUse"><stop stop-color="#E4E5EA"/><stop offset=".524" stop-color="#EFEFF4"/><stop offset="1" stop-color="#DDDFEA"/></linearGradient></defs></svg>