<svg width="68" height="18" fill="none" xmlns="http://www.w3.org/2000/svg"><path d="M.597 1.121h14.16c.33 0 .598.274.598.613V4.59c0 .38-.161.74-.441.99l-7.919 6.795h7.763a.6.6 0 0 1 .597.607v3.28a.605.605 0 0 1-.597.612H.598A.605.605 0 0 1 0 16.262V13.41c0-.38.161-.74.441-.99L8.36 5.625H.597A.61.61 0 0 1 0 5.006V1.734c0-.339.267-.613.597-.613ZM25.226.563c1.637 0 3.097.377 4.316 1.067a7.35 7.35 0 0 1 2.869 2.943c.672 1.25 1.04 2.748 1.04 4.427 0 1.68-.368 3.177-1.04 4.427a7.35 7.35 0 0 1-2.87 2.943c-1.218.69-2.678 1.067-4.315 1.067-1.637 0-3.097-.377-4.316-1.067a7.35 7.35 0 0 1-2.869-2.943C17.368 12.177 17 10.68 17 9c0-1.68.368-3.177 1.041-4.427a7.35 7.35 0 0 1 2.87-2.943C22.128.94 23.587.563 25.225.563Zm0 4.5c-.783 0-1.471.17-2.04.485a3.287 3.287 0 0 0-1.326 1.36c-.308.583-.473 1.289-.473 2.092 0 .803.165 1.509.473 2.092a3.288 3.288 0 0 0 1.326 1.36c.569.316 1.257.486 2.04.486.783 0 1.47-.17 2.04-.486a3.288 3.288 0 0 0 1.325-1.36c.308-.583.473-1.289.473-2.092 0-.803-.165-1.509-.473-2.092a3.287 3.287 0 0 0-1.326-1.36c-.568-.316-1.256-.486-2.04-.486Zm17.548-4.5c1.637 0 3.097.377 4.316 1.067a7.35 7.35 0 0 1 2.869 2.943C50.632 5.823 51 7.321 51 9c0 1.68-.368 3.177-1.041 4.427a7.35 7.35 0 0 1-2.87 2.943c-1.218.69-2.678 1.067-4.315 1.067-1.637 0-3.097-.377-4.316-1.067a7.35 7.35 0 0 1-2.869-2.943c-.672-1.25-1.04-2.747-1.04-4.427 0-1.68.368-3.177 1.04-4.427a7.35 7.35 0 0 1 2.87-2.943C39.677.94 41.136.563 42.773.563Zm0 4.5c-.783 0-1.47.17-2.04.485a3.288 3.288 0 0 0-1.326 1.36c-.307.583-.473 1.289-.473 2.092 0 .803.166 1.509.473 2.092a3.289 3.289 0 0 0 1.327 1.36c.568.316 1.256.486 2.04.486.782 0 1.47-.17 2.039-.486a3.288 3.288 0 0 0 1.326-1.36c.307-.583.473-1.289.473-2.092 0-.803-.166-1.509-.473-2.092a3.287 3.287 0 0 0-1.326-1.36c-.569-.316-1.257-.486-2.04-.486Zm25.228-3.327V16.26a.605.605 0 0 1-.597.613h-2.783c-.371 0-.722-.165-.965-.452L57.032 8.3v7.961a.61.61 0 0 1-.603.613H53.24a.605.605 0 0 1-.597-.613V1.736c0-.339.268-.613.597-.613h2.783c.371 0 .722.165.965.453L63.613 9.7V1.736a.6.6 0 0 1 .592-.613h3.2c.33 0 .597.274.597.613Z" fill="url(#a)"/><defs><linearGradient id="a" x1="0" y1="9" x2="68" y2="9" gradientUnits="userSpaceOnUse"><stop stop-color="#3D3F55"/><stop offset="1" stop-color="#6339F5"/></linearGradient></defs></svg>